<svg width="34" height="38" viewBox="0 0 34 38" fill="none" xmlns="http://www.w3.org/2000/svg">
<path d="M32.7319 26.9066L28.6169 24.5357L32.091 22.4728C32.6495 22.2045 32.8223 21.4567 32.5047 20.9069C32.1814 20.3439 31.4835 20.2251 30.9537 20.533L26.3217 23.2382L18.9602 18.967L26.3217 14.7399L30.9537 17.4407C31.0983 17.5463 31.2845 17.6078 31.4914 17.6078C31.884 17.6078 32.2356 17.4231 32.5047 17.0712C32.8148 16.5126 32.6494 15.7736 32.0909 15.5053L28.6169 13.4423L32.7319 11.0715C33.2682 10.7636 33.4527 10.073 33.1456 9.50555C32.8523 8.96011 32.1266 8.77098 31.5739 9.09208L27.4381 11.485L27.3763 7.359C27.3667 6.72119 26.88 6.20652 26.2391 6.20652C25.5982 6.20652 25.097 6.76075 25.1019 7.359L25.1429 12.8045L17.8229 17.0316V8.45422L22.4342 5.83262C22.9725 5.5291 23.2071 4.82091 22.889 4.26673C22.5661 3.7037 21.9031 3.5365 21.338 3.85326L17.8229 5.83267V1.15242C17.8229 0.514619 17.3059 0 16.6649 0C16.0239 0 15.5276 0.514619 15.5276 1.15242V5.87657L11.8882 3.85321C11.3213 3.5409 10.6759 3.71684 10.3578 4.26667C10.0349 4.8297 10.2357 5.52031 10.7919 5.83256L15.5276 8.49379V16.9876L8.04189 12.6813L8.08336 7.35894C8.14557 6.76075 7.6078 6.20646 6.96683 6.20646H6.92536C6.32581 6.20646 5.79473 6.72114 5.78809 7.35894L5.74662 11.3617L1.71458 9.05242C1.15166 8.72692 0.45687 8.92044 0.163518 9.46148C-0.143549 10.0333 0.0152635 10.7063 0.577313 11.0318L4.65082 13.3807L1.09392 15.5053C0.535786 15.7736 0.361517 16.5214 0.701239 17.0712C0.920028 17.4275 1.23858 17.6078 1.67306 17.6078C1.90023 17.6078 2.08946 17.5506 2.27255 17.4407L6.92531 14.7003L14.3904 18.967L6.92531 23.2777L2.27255 20.533C1.71404 20.2075 0.994101 20.3614 0.701184 20.9069C0.394117 21.4743 0.560876 22.1561 1.09381 22.4728L4.65077 24.5753L0.577204 26.9462C0.0165153 27.2717 -0.165265 27.9579 0.163409 28.5165C0.393301 28.9036 0.701239 29.0928 1.13533 29.0928C1.23858 29.0928 1.44545 29.0312 1.71458 28.9257L5.74662 26.6164L5.78809 30.6191C5.79473 31.2569 6.32581 31.7496 6.92536 31.7496H6.96683C7.6078 31.7496 8.08821 31.2173 8.08336 30.5751L8.04189 25.2571L15.5276 20.9904V29.4403L10.7919 32.1014C10.2268 32.4182 10.0292 33.1088 10.3578 33.6674C10.5877 34.0589 10.8956 34.248 11.3297 34.248C11.5366 34.248 11.7271 34.2128 11.8882 34.1204L15.5276 32.0618V36.8652C15.5276 37.503 16.0239 38 16.6649 38C17.3059 38 17.8229 37.503 17.8229 36.8652V32.141L21.338 34.1204C21.499 34.2128 21.6896 34.248 21.8758 34.248C22.3305 34.248 22.6658 34.0633 22.889 33.6674C23.2031 33.1132 23.0002 32.4181 22.4342 32.1014L17.8229 29.5239V20.9464L25.1429 25.1736L25.1019 30.5751C25.0965 31.2173 25.5982 31.7496 26.2391 31.7496C26.8801 31.7496 27.3667 31.2569 27.3763 30.6191L27.4381 26.4712L31.5739 28.886C31.7336 28.9784 31.9461 29.0092 32.1738 29.0092C32.608 29.0092 32.9264 28.8289 33.1456 28.4726C33.485 27.9227 33.2683 27.2146 32.7319 26.9066Z" fill="url(#paint0_linear)"/>
<defs>
<linearGradient id="paint0_linear" x1="-1.2801" y1="3.91177" x2="27.7653" y2="38.0833" gradientUnits="userSpaceOnUse">
<stop stop-color="#2D9CDB"/>
<stop offset="1" stop-color="#2F80ED"/>
</linearGradient>
</defs>
</svg>
