<svg width="30" height="30" viewBox="0 0 30 30" fill="none" xmlns="http://www.w3.org/2000/svg">
<path fill-rule="evenodd" clip-rule="evenodd" d="M30 15C30 23.2843 23.2843 30 15 30C6.71573 30 0 23.2843 0 15C0 6.71573 6.71573 0 15 0C23.2843 0 30 6.71573 30 15ZM18.4233 7.53224C18.4233 6.56244 17.7996 5.71429 16.5519 5.71429C14.9099 5.71429 14.0891 7.04697 14.0891 8.01659C14.0563 9.16709 14.746 9.86389 15.9281 9.86389C17.3399 9.86389 18.4233 8.74347 18.4233 7.53224ZM11.6919 21.0144C11.0023 23.6799 11.7247 24.2857 12.7099 24.2857C13.695 24.2857 16.24 23.3757 18.5714 21.0129L18.013 20.2553C17.061 21.0127 16.0919 21.3772 15.7963 21.3772C15.5671 21.3772 15.4682 21.0745 15.6981 20.1963L16.993 15.2266C17.4855 13.409 17.3209 12.2277 16.3361 12.2277C15.1544 12.2277 12.3968 13.4177 10 15.4468L10.4919 16.2649C11.2483 15.7497 12.5271 15.2268 12.823 15.2268C13.0522 15.2268 13.0199 15.5295 12.823 16.2866L11.6919 21.0144Z" fill="#333333" fill-opacity="0.67"/>
</svg>
