<svg width="300" height="95" viewBox="0 0 300 95" fill="none" xmlns="http://www.w3.org/2000/svg">
<path d="M5 55.5H24H294L289 89H0L5 55.5Z" fill="#333333"/>
<path d="M34.524 56L35.308 51.632H40.964C52.108 51.632 56.924 47.936 59.22 35C59.668 32.592 59.892 30.464 59.892 28.616C59.892 20.832 55.86 18.2 46.844 18.2H41.188L41.916 14H30.716L29.988 18.2H24.276C13.188 18.2 8.26002 22.232 6.02002 35C5.57202 37.464 5.34802 39.648 5.34802 41.496C5.34802 49.28 9.38002 51.632 18.34 51.632H24.108L23.324 56H34.524ZM39.564 27.384H43.372C46.676 27.384 48.02 28.616 48.02 31.752C48.02 32.648 47.908 33.768 47.684 35C46.676 40.768 44.884 42.448 40.74 42.448H36.932L39.564 27.384ZM25.732 42.448H21.756C18.564 42.448 17.22 41.44 17.22 38.36C17.22 37.408 17.332 36.344 17.556 35C18.508 29.512 20.244 27.384 24.5 27.384H28.364L25.732 42.448Z" fill="#333333"/>
<path d="M118.872 44.352H128.784C140.488 44.352 143.736 40.656 145.808 28.84C146.144 26.824 146.368 25.088 146.368 23.52C146.368 16.576 142.616 14 134.104 14H112.992L105.6 56H116.8L118.872 44.352ZM122.568 23.184H130.24C133.488 23.184 134.608 23.968 134.608 26.208C134.608 26.936 134.496 27.888 134.272 28.952C133.32 34.384 132.368 35.168 128.112 35.168H120.44L122.568 23.184Z" fill="#333333"/>
<path d="M187.817 29.064C188.321 26.04 188.489 24.808 188.489 23.632C188.489 15.96 183.057 13.608 173.369 13.608C161.049 13.608 153.153 15.68 150.745 29.568C148.561 42.168 148.337 44.184 148.337 45.696C148.337 55.944 155.785 56.56 165.753 56.56C178.857 56.56 183.953 53.424 185.857 40.32H174.321C173.481 46.648 170.905 46.816 166.257 46.816C161.553 46.816 160.209 45.528 160.209 42.616C160.209 41.384 160.489 39.816 162.001 31.36C163.065 25.368 164.017 23.352 170.401 23.352C174.209 23.352 176.617 24.136 176.617 26.488C176.617 27.16 176.505 27.832 176.281 29.064H187.817Z" fill="#333333"/>
<path d="M215.929 48.776L216.825 56H228.249L222.873 14H205.849L185.857 56H197.505L200.865 48.776H215.929ZM215.033 40.656H204.673L213.017 22.4H213.129L215.033 40.656Z" fill="#333333"/>
<path d="M271.347 29.792L274.147 14H263.563L260.763 29.792H257.403L250.907 14H238.139L247.211 34.328L228.843 56H242.731L255.723 39.536H259.083L256.171 56H266.755L269.667 39.536H273.027L280.195 56L294 55.5L283.331 34.328L299.571 14H286.803L274.707 29.792H271.347Z" fill="#333333"/>
<g filter="url(#filter0_i)">
<path fill-rule="evenodd" clip-rule="evenodd" d="M104.774 29.5427C105.303 11.0243 100.025 4.37666 95.277 1.52743C89.1042 0.577632 79.6074 2.47706 79.6074 29.0677C79.6074 56.3182 90.3704 56.6082 95.277 55.1837C98.126 54.044 104.299 46.1621 104.774 29.5427Z" fill="#333333"/>
<path d="M73.9094 1.52739C69.9524 3.42674 62.1335 10.834 62.5134 29.0677C62.8932 47.3014 69.161 53.2841 73.9094 55.1837C78.6578 57.0832 90.5287 57.0832 95.277 55.1837C90.3704 56.6082 79.6074 56.3182 79.6074 29.0677C79.6074 2.47706 89.1042 0.577632 95.277 1.52743C91.6618 -0.641881 77.8664 -0.371928 73.9094 1.52739Z" fill="#333333"/>
</g>
<path d="M73.9094 1.52739C69.9524 3.42674 62.1335 10.834 62.5134 29.0677C62.8932 47.3014 69.161 53.2841 73.9094 55.1837C78.6578 57.0832 90.5287 57.0832 95.277 55.1837C90.3704 56.6082 79.6074 56.3182 79.6074 29.0677C79.6074 2.47706 89.1042 0.577632 95.277 1.52743C91.6618 -0.641881 77.8664 -0.371928 73.9094 1.52739Z" fill="#333333"/>
<path d="M101.925 29.5427C101.45 46.1621 95.7519 50.9103 92.428 50.9103C90.0538 50.9103 83.786 49.2959 83.4061 29.5427C83.0263 9.78954 89.1042 5.32608 92.9029 5.32608C96.7016 5.32608 102.454 11.0243 101.925 29.5427Z" stroke="#FEDD49" stroke-width="1.7"/>
<path d="M90.0539 22.4202V11.0241C88.1546 12.4486 87.0466 17.5135 86.7301 19.5711L90.0539 22.4202Z" fill="white"/>
<path d="M94.8023 22.4202V10.0744L96.2267 10.5493L98.6009 14.8228L99.0758 20.046L94.8023 22.4202Z" fill="white"/>
<path d="M85.7804 34.2911C84.8306 27.6434 85.7804 25.744 85.7804 25.744C85.7804 25.744 88.1546 27.9599 88.6294 29.0679C87.6797 30.9672 85.8072 34.4787 85.7804 34.2911Z" fill="white"/>
<path d="M99.0758 25.744C99.0758 25.744 97.3347 27.9599 96.7016 29.0679C97.4613 31.3471 98.4427 33.4997 99.0758 34.2911C100.5 28.593 99.0758 25.744 99.0758 25.744Z" fill="white"/>
<path d="M87.6797 43.3129C87.6797 43.3129 90.6869 37.2983 92.428 34.7659C92.428 34.7659 95.4161 46.5231 95.2771 46.6368C90.0539 50.9103 87.6797 43.3129 87.6797 43.3129Z" fill="white"/>
<path d="M94.8022 9.12476L96.2267 10.0744L98.6009 14.3479L99.5505 19.5711L99.0757 20.046L94.8022 22.4202V21.4705L98.126 19.0963L97.9361 14.8228L96 11L94.8022 10.0744V9.12476Z" fill="#69696B"/>
<path d="M96.2267 45.6871L93.8525 34.291L92.428 34.7659L94.8022 45.2123L91.9532 46.6368L89.1042 46.1619L90.5287 47.5864L91.4783 48.0613H92.428L94.3273 47.5864L95.277 46.6368L96.2267 45.6871Z" fill="#69696B"/>
<path d="M91.4783 10.0744L90.0538 11.0241V22.4202L91.0035 22.895L91.4783 10.0744Z" fill="#69696B"/>
<path d="M87.6796 24.7943L85.7803 25.744L88.6293 29.0679L85.7803 34.2911L86.73 36.1904L90.0538 29.0679L87.6796 24.7943Z" fill="#69696B"/>
<path d="M99.0757 25.744L99.5505 25.2692L100.025 28.1182L100.215 30.0175L100.025 32.3917L99.5505 33.8162L99.0757 34.291L99.5505 29.5427L99.0757 25.744Z" fill="#69696B"/>
<ellipse cx="94.0317" cy="29.4282" rx="0.591653" ry="0.950839" transform="rotate(23.9546 94.0317 29.4282)" fill="#FEDD49"/>
<ellipse cx="91.3775" cy="29.4584" rx="0.699734" ry="1.02626" transform="rotate(-22.7151 91.3775 29.4584)" fill="#FEDD49"/>
<ellipse cx="91.357" cy="25.7364" rx="0.740552" ry="0.937219" transform="rotate(22.734 91.357 25.7364)" fill="#FEDD49"/>
<ellipse cx="94.0414" cy="25.7714" rx="0.624476" ry="0.841841" transform="rotate(-26.5561 94.0414 25.7714)" fill="#FEDD49"/>
<path d="M65.516 63.424H67.844V77.392H73.484V63.424H75.812V77.392H81.452V63.424H83.78V79H65.516V63.424ZM98.0291 67.384V79H95.8691V70.432L89.8211 79H87.6611V67.384H89.8211V76.24L95.9891 67.384H98.0291ZM101.77 67.384H103.93V72.208H109.642V67.384H111.802V79H109.642V73.792H103.93V79H101.77V67.384ZM115.552 67.384H117.712V72.208H123.424V67.384H125.584V79H123.424V73.792H117.712V79H115.552V67.384ZM129.333 67.384H131.541V71.584H133.797C134.789 71.584 135.573 71.656 136.149 71.8C136.741 71.944 137.173 72.2 137.445 72.568C137.717 72.92 137.853 73.424 137.853 74.08V76.48C137.853 78.16 136.437 79 133.605 79H129.333V67.384ZM139.701 67.384H141.861V79H139.701V67.384ZM133.461 77.608C133.925 77.608 134.405 77.544 134.901 77.416C135.461 77.272 135.741 76.864 135.741 76.192V74.728C135.741 74.264 135.677 73.912 135.549 73.672C135.437 73.432 135.221 73.264 134.901 73.168C134.597 73.072 134.133 73.024 133.509 73.024H131.517V77.608H133.461ZM155.967 67.384V79H153.807V70.432L147.759 79H145.599V67.384H147.759V76.24L153.927 67.384H155.967ZM150.783 65.728C149.711 65.728 148.863 65.456 148.239 64.912C147.615 64.352 147.279 63.608 147.231 62.68H149.007C149.119 63.928 149.711 64.552 150.783 64.552C151.839 64.552 152.431 63.928 152.559 62.68H154.335C154.303 63.592 153.967 64.328 153.327 64.888C152.703 65.448 151.855 65.728 150.783 65.728ZM175.223 79H165.383V67.384H167.543V77.416H173.279V67.384H175.439V77.416H177.071V81.976H175.223V79ZM184.549 79.24C180.997 79.24 179.221 78.056 179.221 75.688V71.104C179.221 69.696 179.621 68.688 180.421 68.08C181.237 67.456 182.549 67.144 184.357 67.144C186.069 67.144 187.301 67.44 188.053 68.032C188.821 68.624 189.205 69.648 189.205 71.104V73.672H181.405V75.424C181.405 76.224 181.685 76.8 182.245 77.152C182.805 77.504 183.669 77.68 184.837 77.68C185.941 77.68 187.245 77.488 188.749 77.104V78.76C187.277 79.08 185.877 79.24 184.549 79.24ZM187.045 72.256V70.432C187.045 69.728 186.829 69.248 186.397 68.992C185.981 68.72 185.261 68.584 184.237 68.584C183.245 68.584 182.525 68.72 182.077 68.992C181.629 69.248 181.405 69.728 181.405 70.432V72.256H187.045ZM192.497 67.384H194.657V72.208H200.369V67.384H202.529V79H200.369V73.792H194.657V79H192.497V67.384ZM209.206 68.968H205.126V67.384H215.422V68.968H211.366V79H209.206V68.968ZM218.02 67.384H220.18V68.632C220.356 67.64 221.676 67.144 224.14 67.144C225.612 67.144 226.724 67.456 227.476 68.08C228.228 68.688 228.604 69.472 228.604 70.432V75.208C228.604 75.896 228.5 76.496 228.292 77.008C228.1 77.52 227.844 77.92 227.524 78.208C227.236 78.48 226.836 78.696 226.324 78.856C225.828 79.016 225.332 79.12 224.836 79.168C224.388 79.216 223.844 79.24 223.204 79.24C222.5 79.24 221.852 79.16 221.26 79C220.684 78.824 220.324 78.576 220.18 78.256V83.752H218.02V67.384ZM223.252 77.776C224.084 77.776 224.716 77.72 225.148 77.608C225.596 77.48 225.916 77.256 226.108 76.936C226.3 76.616 226.396 76.128 226.396 75.472V71.2C226.396 70.48 226.3 69.944 226.108 69.592C225.916 69.24 225.596 69.008 225.148 68.896C224.716 68.768 224.076 68.704 223.228 68.704C222.38 68.704 221.732 68.768 221.284 68.896C220.852 69.008 220.54 69.24 220.348 69.592C220.156 69.944 220.06 70.48 220.06 71.2V75.472C220.06 76.112 220.156 76.6 220.348 76.936C220.556 77.256 220.884 77.48 221.332 77.608C221.78 77.72 222.42 77.776 223.252 77.776Z" fill="#FEDD49"/>
<circle cx="21" cy="72.5" r="3.5" fill="#FEDD49"/>
<circle cx="273" cy="72.5" r="3.5" fill="#FEDD49"/>
<defs>
<filter id="filter0_i" x="62.5" y="0" width="45.3105" height="56.6083" filterUnits="userSpaceOnUse" color-interpolation-filters="sRGB">
<feFlood flood-opacity="0" result="BackgroundImageFix"/>
<feBlend mode="normal" in="SourceGraphic" in2="BackgroundImageFix" result="shape"/>
<feColorMatrix in="SourceAlpha" type="matrix" values="0 0 0 0 0 0 0 0 0 0 0 0 0 0 0 0 0 0 127 0" result="hardAlpha"/>
<feOffset dx="18"/>
<feGaussianBlur stdDeviation="1.5"/>
<feComposite in2="hardAlpha" operator="arithmetic" k2="-1" k3="1"/>
<feColorMatrix type="matrix" values="0 0 0 0 0.0305677 0 0 0 0 0.0305677 0 0 0 0 0.0305677 0 0 0 0.1 0"/>
<feBlend mode="normal" in2="shape" result="effect1_innerShadow"/>
</filter>
</defs>
</svg>
