<svg width="28" height="28" viewBox="0 0 28 28" fill="none" xmlns="http://www.w3.org/2000/svg">
<path d="M27.1421 25.4286L25.1494 27.4221C24.7937 27.7774 23.752 27.9991 23.7185 27.9991C17.4147 28.0541 11.3451 25.5775 6.88551 21.1166C2.4137 16.6414 -0.0652679 10.5489 0.00130712 4.22264C0.00130712 4.21976 0.229447 3.20771 0.58489 2.85558L2.57742 0.86235C3.30657 0.129675 4.7072 -0.201419 5.68839 0.126904L6.10754 0.26675C7.08585 0.594766 8.11299 1.67669 8.38329 2.67346L9.38561 6.35294C9.65591 7.35259 9.29134 8.77474 8.5624 9.50403L7.23193 10.835C8.53819 15.6718 12.3326 19.4676 17.1692 20.7773L18.4992 19.4461C19.2317 18.7134 20.6531 18.3491 21.6504 18.619L25.3286 19.6251C26.3254 19.8991 27.4069 20.9199 27.7348 21.8981L27.8746 22.3234C28.1996 23.302 27.8711 24.7026 27.1421 25.4286Z" fill="#333333"/>
</svg>
