<svg width="39" height="38" viewBox="0 0 39 38" fill="none" xmlns="http://www.w3.org/2000/svg">
<path d="M25.976 12.2645C24.251 10.5555 21.8158 9.44973 19.1776 9.44973C16.5394 9.44973 14.1041 10.5053 12.3792 12.2645C10.6542 13.9735 9.53805 16.3862 9.53805 19C9.53805 21.6137 10.6542 24.0264 12.3792 25.7354C14.1041 27.4444 16.5394 28.5502 19.1776 28.5502C21.8158 28.5502 24.251 27.4947 25.976 25.7354C27.7009 24.0264 28.8171 21.6137 28.8171 19C28.8171 16.3862 27.7517 13.9735 25.976 12.2645ZM24.1495 23.9259C22.8812 25.1825 21.1055 25.9365 19.1776 25.9365C17.2497 25.9365 15.474 25.1825 14.2056 23.9259C12.9372 22.6693 12.1762 20.91 12.1762 19C12.1762 17.0899 12.9372 15.3307 14.2056 14.0741C15.474 12.8174 17.2497 12.0635 19.1776 12.0635C21.1055 12.0635 22.8812 12.8174 24.1495 14.0741C25.4179 15.3307 26.1789 17.0899 26.1789 19C26.1789 20.91 25.4179 22.6693 24.1495 23.9259Z" fill="url(#paint0_linear)"/>
<path d="M37.036 17.6931H33.1295C32.4192 17.6931 31.8104 18.2963 31.8104 19C31.8104 19.7037 32.4192 20.3069 33.1295 20.3069H37.036C37.7463 20.3069 38.3551 19.7037 38.3551 19C38.3551 18.2963 37.7463 17.6931 37.036 17.6931Z" fill="url(#paint1_linear)"/>
<path d="M19.1776 31.5159C18.4673 31.5159 17.8585 32.1191 17.8585 32.8228V36.6931C17.8585 37.3968 18.4673 38 19.1776 38C19.8879 38 20.4967 37.3968 20.4967 36.6931V32.8228C20.4967 32.1191 19.8879 31.5159 19.1776 31.5159Z" fill="url(#paint2_linear)"/>
<path d="M32.7236 30.6111L29.9332 27.8466C29.4766 27.3439 28.6142 27.3439 28.1068 27.8466C27.5995 28.3492 27.5995 29.1534 28.1068 29.6561L30.8972 32.4206C31.4045 32.9233 32.2163 32.9233 32.7236 32.4206C33.231 31.918 33.231 31.1138 32.7236 30.6111Z" fill="url(#paint3_linear)"/>
<path d="M19.1776 0C18.4673 0 17.8585 0.603174 17.8585 1.30688V5.17725C17.8585 5.88095 18.4673 6.48413 19.1776 6.48413C19.8879 6.48413 20.4967 5.88095 20.4967 5.17725V1.30688C20.4967 0.603174 19.8879 0 19.1776 0Z" fill="url(#paint4_linear)"/>
<path d="M32.7744 5.57937C32.267 5.07672 31.4553 5.07672 30.9479 5.57937L28.1575 8.34392C27.6502 8.84656 27.6502 9.65079 28.1575 10.1534C28.6142 10.6561 29.4766 10.6561 29.984 10.1534L32.7744 7.38889C33.2817 6.88624 33.2817 6.08201 32.7744 5.57937Z" fill="url(#paint5_linear)"/>
<path d="M5.22563 17.6931H1.31909C0.608812 17.6931 0 18.2963 0 19C0 19.7037 0.558077 20.3069 1.31909 20.3069H5.22563C5.93591 20.3069 6.54472 19.7037 6.54472 19C6.54472 18.2963 5.93591 17.6931 5.22563 17.6931Z" fill="url(#paint6_linear)"/>
<path d="M10.1976 27.8466C9.74099 27.3439 8.8785 27.3439 8.37116 27.8466L5.58077 30.6111C5.07343 31.1138 5.07343 31.918 5.58077 32.4206C6.08812 32.9233 6.89987 32.9233 7.40721 32.4206L10.1976 29.6561C10.7049 29.1534 10.7049 28.3492 10.1976 27.8466Z" fill="url(#paint7_linear)"/>
<path d="M10.1976 8.34392L7.40721 5.57937C6.89987 5.07672 6.08812 5.07672 5.58077 5.57937C5.07343 6.08201 5.07343 6.88624 5.58077 7.38889L8.37116 10.1534C8.8785 10.6561 9.69025 10.6561 10.1976 10.1534C10.7049 9.65079 10.7049 8.84656 10.1976 8.34392Z" fill="url(#paint8_linear)"/>
<defs>
<linearGradient id="paint0_linear" x1="2.01869" y1="-5.06149e-07" x2="36.4587" y2="41.815" gradientUnits="userSpaceOnUse">
<stop stop-color="#F2C94C"/>
<stop offset="1" stop-color="#F2994A"/>
</linearGradient>
<linearGradient id="paint1_linear" x1="2.01869" y1="-5.06149e-07" x2="36.4587" y2="41.815" gradientUnits="userSpaceOnUse">
<stop stop-color="#F2C94C"/>
<stop offset="1" stop-color="#F2994A"/>
</linearGradient>
<linearGradient id="paint2_linear" x1="2.01869" y1="-5.06149e-07" x2="36.4587" y2="41.815" gradientUnits="userSpaceOnUse">
<stop stop-color="#F2C94C"/>
<stop offset="1" stop-color="#F2994A"/>
</linearGradient>
<linearGradient id="paint3_linear" x1="2.01869" y1="-5.06149e-07" x2="36.4587" y2="41.815" gradientUnits="userSpaceOnUse">
<stop stop-color="#F2C94C"/>
<stop offset="1" stop-color="#F2994A"/>
</linearGradient>
<linearGradient id="paint4_linear" x1="2.01869" y1="-5.06149e-07" x2="36.4587" y2="41.815" gradientUnits="userSpaceOnUse">
<stop stop-color="#F2C94C"/>
<stop offset="1" stop-color="#F2994A"/>
</linearGradient>
<linearGradient id="paint5_linear" x1="2.01869" y1="-5.06149e-07" x2="36.4587" y2="41.815" gradientUnits="userSpaceOnUse">
<stop stop-color="#F2C94C"/>
<stop offset="1" stop-color="#F2994A"/>
</linearGradient>
<linearGradient id="paint6_linear" x1="2.01869" y1="-5.06149e-07" x2="36.4587" y2="41.815" gradientUnits="userSpaceOnUse">
<stop stop-color="#F2C94C"/>
<stop offset="1" stop-color="#F2994A"/>
</linearGradient>
<linearGradient id="paint7_linear" x1="2.01869" y1="-5.06149e-07" x2="36.4587" y2="41.815" gradientUnits="userSpaceOnUse">
<stop stop-color="#F2C94C"/>
<stop offset="1" stop-color="#F2994A"/>
</linearGradient>
<linearGradient id="paint8_linear" x1="2.01869" y1="-5.06149e-07" x2="36.4587" y2="41.815" gradientUnits="userSpaceOnUse">
<stop stop-color="#F2C94C"/>
<stop offset="1" stop-color="#F2994A"/>
</linearGradient>
</defs>
</svg>
