<svg width="38" height="39" viewBox="0 0 38 39" fill="none" xmlns="http://www.w3.org/2000/svg">
<path d="M35.9023 3.16645H28.7081V2.09068C28.7081 1.48844 28.2164 1 27.6101 1C27.0039 1 26.5122 1.48844 26.5122 2.09068V3.16645H20.0979V2.09068C20.0979 1.48844 19.6062 1 19 1C18.3938 1 17.9021 1.48844 17.9021 2.09068V3.16645H11.7604V2.09068C11.7604 1.48844 11.2687 1 10.6625 1C10.0563 1 9.56458 1.48844 9.56458 2.09068V3.16645H2.09793C1.49169 3.16645 1 3.65489 1 4.25713V28.9014C1 29.5036 1.49169 29.9921 2.09793 29.9921H8.83665C9.91647 34.5755 14.0619 38 19 38C23.9381 38 28.0835 34.5753 29.1633 29.9921H35.9021C36.5083 29.9921 37 29.5036 37 28.9014V4.25713C37.0002 3.65489 36.5087 3.16645 35.9023 3.16645ZM9.56458 5.34781V6.33342C9.56458 6.93565 10.0563 7.4241 10.6625 7.4241C11.2687 7.4241 11.7604 6.93565 11.7604 6.33342V5.34781H17.9021V6.33342C17.9021 6.93565 18.3938 7.4241 19 7.4241C19.6062 7.4241 20.0979 6.93565 20.0979 6.33342V5.34781H26.5122V6.33342C26.5122 6.93565 27.0039 7.4241 27.6101 7.4241C28.2164 7.4241 28.7081 6.93565 28.7081 6.33342V5.34781H34.8043V9.80796H3.19586V5.34781H9.56458ZM19 35.8186C14.4542 35.8186 10.7558 32.1447 10.7558 27.6289C10.7558 23.1131 14.4542 19.4392 19 19.4392C23.5458 19.4392 27.2442 23.113 27.2442 27.6289C27.2442 32.1449 23.546 35.8186 19 35.8186ZM29.4355 27.8107C29.4365 27.75 29.44 27.6898 29.44 27.6289C29.44 21.9103 24.7566 17.2578 19 17.2578C13.2434 17.2578 8.55997 21.9103 8.55997 27.6289C8.55997 27.6898 8.56363 27.75 8.56455 27.8107H3.19568V11.9895H34.8041V27.8107H29.4355Z" fill="#333333"/>
<path d="M20.0979 27.9041V22.6278C20.0979 22.0256 19.6062 21.5371 19 21.5371C18.3938 21.5371 17.9021 22.0256 17.9021 22.6278V28.356C17.9021 28.6453 18.0177 28.9226 18.2236 29.1273L20.747 31.6343C20.9615 31.8471 21.2423 31.9536 21.5234 31.9536C21.8043 31.9536 22.0854 31.8471 22.2998 31.6343C22.7286 31.2083 22.7286 30.5178 22.2998 30.0919L20.0979 27.9041Z" fill="#333333"/>
<path d="M28.7081 3.16645H28.4581V3.41645H28.7081V3.16645ZM26.5122 3.16645V3.41645H26.7622V3.16645H26.5122ZM20.0979 3.16645H19.8479V3.41645H20.0979V3.16645ZM17.9021 3.16645V3.41645H18.1521V3.16645H17.9021ZM11.7604 3.16645H11.5104V3.41645H11.7604V3.16645ZM9.56458 3.16645V3.41645H9.81458V3.16645H9.56458ZM8.83665 29.9921L9.07999 29.9347L9.0346 29.7421H8.83665V29.9921ZM29.1633 29.9921V29.7421H28.9654L28.92 29.9347L29.1633 29.9921ZM37 4.25713L36.75 4.25705V4.25713H37ZM9.56458 5.34781H9.81458V5.09781H9.56458V5.34781ZM11.7604 5.34781V5.09781H11.5104V5.34781H11.7604ZM17.9021 5.34781H18.1521V5.09781H17.9021V5.34781ZM20.0979 5.34781V5.09781H19.8479V5.34781H20.0979ZM26.5122 5.34781H26.7622V5.09781H26.5122V5.34781ZM28.7081 5.34781V5.09781H28.4581V5.34781H28.7081ZM34.8043 5.34781H35.0543V5.09781H34.8043V5.34781ZM34.8043 9.80796V10.058H35.0543V9.80796H34.8043ZM3.19586 9.80796H2.94586V10.058H3.19586V9.80796ZM3.19586 5.34781V5.09781H2.94586V5.34781H3.19586ZM29.4355 27.8107L29.1855 27.8062L29.1809 28.0607H29.4355V27.8107ZM8.56455 27.8107V28.0607H8.81835L8.81452 27.8069L8.56455 27.8107ZM3.19568 27.8107H2.94568V28.0607H3.19568V27.8107ZM3.19568 11.9895V11.7395H2.94568V11.9895H3.19568ZM34.8041 11.9895H35.0541V11.7395H34.8041V11.9895ZM34.8041 27.8107V28.0607H35.0541V27.8107H34.8041ZM20.0979 27.9041H19.8479V28.0082L19.9217 28.0815L20.0979 27.9041ZM18.2236 29.1273L18.0473 29.3046L18.0474 29.3047L18.2236 29.1273ZM20.747 31.6343L20.5708 31.8116L20.5709 31.8117L20.747 31.6343ZM22.2998 31.6343L22.4759 31.8117L22.476 31.8116L22.2998 31.6343ZM22.2998 30.0919L22.1236 30.2692L22.1236 30.2692L22.2998 30.0919ZM35.9023 2.91645H28.7081V3.41645H35.9023V2.91645ZM28.9581 3.16645V2.09068H28.4581V3.16645H28.9581ZM28.9581 2.09068C28.9581 1.34881 28.3529 0.75 27.6101 0.75V1.25C28.0799 1.25 28.4581 1.62807 28.4581 2.09068H28.9581ZM27.6101 0.75C26.8674 0.75 26.2622 1.34881 26.2622 2.09068H26.7622C26.7622 1.62807 27.1404 1.25 27.6101 1.25V0.75ZM26.2622 2.09068V3.16645H26.7622V2.09068H26.2622ZM26.5122 2.91645H20.0979V3.41645H26.5122V2.91645ZM20.3479 3.16645V2.09068H19.8479V3.16645H20.3479ZM20.3479 2.09068C20.3479 1.34881 19.7427 0.75 19 0.75V1.25C19.4697 1.25 19.8479 1.62807 19.8479 2.09068H20.3479ZM19 0.75C18.2573 0.75 17.6521 1.34881 17.6521 2.09068H18.1521C18.1521 1.62807 18.5303 1.25 19 1.25V0.75ZM17.6521 2.09068V3.16645H18.1521V2.09068H17.6521ZM17.9021 2.91645H11.7604V3.41645H17.9021V2.91645ZM12.0104 3.16645V2.09068H11.5104V3.16645H12.0104ZM12.0104 2.09068C12.0104 1.34881 11.4053 0.75 10.6625 0.75V1.25C11.1322 1.25 11.5104 1.62807 11.5104 2.09068H12.0104ZM10.6625 0.75C9.91976 0.75 9.31458 1.34881 9.31458 2.09068H9.81458C9.81458 1.62807 10.1928 1.25 10.6625 1.25V0.75ZM9.31458 2.09068V3.16645H9.81458V2.09068H9.31458ZM9.56458 2.91645H2.09793V3.41645H9.56458V2.91645ZM2.09793 2.91645C1.35518 2.91645 0.75 3.51526 0.75 4.25713H1.25C1.25 3.79452 1.6282 3.41645 2.09793 3.41645V2.91645ZM0.75 4.25713V28.9014H1.25V4.25713H0.75ZM0.75 28.9014C0.75 29.6432 1.35518 30.2421 2.09793 30.2421V29.7421C1.6282 29.7421 1.25 29.364 1.25 28.9014H0.75ZM2.09793 30.2421H8.83665V29.7421H2.09793V30.2421ZM8.59332 30.0494C9.6993 34.7438 13.944 38.25 19 38.25V37.75C14.1797 37.75 10.1336 34.4071 9.07999 29.9347L8.59332 30.0494ZM19 38.25C24.056 38.25 28.3007 34.7437 29.4067 30.0494L28.92 29.9347C27.8664 34.4069 23.8203 37.75 19 37.75V38.25ZM29.1633 30.2421H35.9021V29.7421H29.1633V30.2421ZM35.9021 30.2421C36.6448 30.2421 37.25 29.6432 37.25 28.9014H36.75C36.75 29.364 36.3718 29.7421 35.9021 29.7421V30.2421ZM37.25 28.9014V4.25713H36.75V28.9014H37.25ZM37.25 4.25721C37.2502 3.51529 36.6452 2.91645 35.9023 2.91645V3.41645C36.3722 3.41645 36.7501 3.7945 36.75 4.25705L37.25 4.25721ZM9.31458 5.34781V6.33342H9.81458V5.34781H9.31458ZM9.31458 6.33342C9.31458 7.07528 9.91976 7.6741 10.6625 7.6741V7.1741C10.1928 7.1741 9.81458 6.79602 9.81458 6.33342H9.31458ZM10.6625 7.6741C11.4053 7.6741 12.0104 7.07528 12.0104 6.33342H11.5104C11.5104 6.79602 11.1322 7.1741 10.6625 7.1741V7.6741ZM12.0104 6.33342V5.34781H11.5104V6.33342H12.0104ZM11.7604 5.59781H17.9021V5.09781H11.7604V5.59781ZM17.6521 5.34781V6.33342H18.1521V5.34781H17.6521ZM17.6521 6.33342C17.6521 7.07528 18.2573 7.6741 19 7.6741V7.1741C18.5303 7.1741 18.1521 6.79602 18.1521 6.33342H17.6521ZM19 7.6741C19.7427 7.6741 20.3479 7.07528 20.3479 6.33342H19.8479C19.8479 6.79602 19.4697 7.1741 19 7.1741V7.6741ZM20.3479 6.33342V5.34781H19.8479V6.33342H20.3479ZM20.0979 5.59781H26.5122V5.09781H20.0979V5.59781ZM26.2622 5.34781V6.33342H26.7622V5.34781H26.2622ZM26.2622 6.33342C26.2622 7.07528 26.8674 7.6741 27.6101 7.6741V7.1741C27.1404 7.1741 26.7622 6.79602 26.7622 6.33342H26.2622ZM27.6101 7.6741C28.3529 7.6741 28.9581 7.07529 28.9581 6.33342H28.4581C28.4581 6.79602 28.0799 7.1741 27.6101 7.1741V7.6741ZM28.9581 6.33342V5.34781H28.4581V6.33342H28.9581ZM28.7081 5.59781H34.8043V5.09781H28.7081V5.59781ZM34.5543 5.34781V9.80796H35.0543V5.34781H34.5543ZM34.8043 9.55796H3.19586V10.058H34.8043V9.55796ZM3.44586 9.80796V5.34781H2.94586V9.80796H3.44586ZM3.19586 5.59781H9.56458V5.09781H3.19586V5.59781ZM19 35.5686C14.5907 35.5686 11.0058 32.0051 11.0058 27.6289H10.5058C10.5058 32.2843 14.3177 36.0686 19 36.0686V35.5686ZM11.0058 27.6289C11.0058 23.2528 14.5907 19.6892 19 19.6892V19.1892C14.3177 19.1892 10.5058 22.9735 10.5058 27.6289H11.0058ZM19 19.6892C23.4093 19.6892 26.9942 23.2526 26.9942 27.6289H27.4942C27.4942 22.9733 23.6823 19.1892 19 19.1892V19.6892ZM26.9942 27.6289C26.9942 32.0052 23.4095 35.5686 19 35.5686V36.0686C23.6825 36.0686 27.4942 32.2845 27.4942 27.6289H26.9942ZM29.6854 27.8152C29.6862 27.7719 29.69 27.6886 29.69 27.6289H29.19C29.19 27.6911 29.1869 27.7281 29.1855 27.8062L29.6854 27.8152ZM29.69 27.6289C29.69 21.7707 24.8931 17.0078 19 17.0078V17.5078C24.6201 17.5078 29.19 22.0499 29.19 27.6289H29.69ZM19 17.0078C13.1069 17.0078 8.30997 21.7707 8.30997 27.6289H8.80997C8.80997 22.0499 13.3799 17.5078 19 17.5078V17.0078ZM8.30997 27.6289C8.30997 27.6844 8.31401 27.7768 8.31458 27.8145L8.81452 27.8069C8.81326 27.7231 8.80997 27.6953 8.80997 27.6289H8.30997ZM8.56455 27.5607H3.19568V28.0607H8.56455V27.5607ZM3.44568 27.8107V11.9895H2.94568V27.8107H3.44568ZM3.19568 12.2395H34.8041V11.7395H3.19568V12.2395ZM34.5541 11.9895V27.8107H35.0541V11.9895H34.5541ZM34.8041 27.5607H29.4355V28.0607H34.8041V27.5607ZM20.3479 27.9041V22.6278H19.8479V27.9041H20.3479ZM20.3479 22.6278C20.3479 21.8859 19.7427 21.2871 19 21.2871V21.7871C19.4697 21.7871 19.8479 22.1652 19.8479 22.6278H20.3479ZM19 21.2871C18.2573 21.2871 17.6521 21.8859 17.6521 22.6278H18.1521C18.1521 22.1652 18.5303 21.7871 19 21.7871V21.2871ZM17.6521 22.6278V28.356H18.1521V22.6278H17.6521ZM17.6521 28.356C17.6521 28.7121 17.7945 29.0532 18.0473 29.3046L18.3999 28.95C18.241 28.7921 18.1521 28.5784 18.1521 28.356H17.6521ZM18.0474 29.3047L20.5708 31.8116L20.9232 31.4569L18.3998 28.95L18.0474 29.3047ZM20.5709 31.8117C20.8342 32.073 21.1792 32.2036 21.5234 32.2036V31.7036C21.3054 31.7036 21.0887 31.6212 20.9231 31.4568L20.5709 31.8117ZM21.5234 32.2036C21.8674 32.2036 22.2126 32.073 22.4759 31.8117L22.1237 31.4568C21.9581 31.6212 21.7412 31.7036 21.5234 31.7036V32.2036ZM22.476 31.8116C23.0032 31.2879 23.0032 30.4382 22.476 29.9145L22.1236 30.2692C22.454 30.5974 22.454 31.1287 22.1236 31.4569L22.476 31.8116ZM22.476 29.9145L20.2741 27.7268L19.9217 28.0815L22.1236 30.2692L22.476 29.9145Z" fill="#333333"/>
</svg>
