<svg width="54" height="50" viewBox="0 0 54 50" fill="none" xmlns="http://www.w3.org/2000/svg">
<path d="M52.4253 10.1821C51.9384 9.58601 51.2169 9.24417 50.446 9.24417H10.6767L9.87357 5.35481C9.70589 4.54348 9.15115 3.86224 8.38933 3.53226L2.78541 1.10577C2.13846 0.825437 1.38659 1.12158 1.10598 1.76675C0.825053 2.41212 1.12192 3.16226 1.76857 3.44219L7.37259 5.86877L13.5502 35.783C13.7936 36.9611 14.8454 37.8162 16.0512 37.8162H46.6384C47.3436 37.8162 47.9152 37.246 47.9152 36.5426C47.9152 35.8391 47.3436 35.2689 46.6384 35.2689H16.0513L15.2999 31.6301H46.8748C48.0806 31.6301 49.1325 30.775 49.3757 29.5969L52.947 12.3051C53.1025 11.5521 52.9123 10.7782 52.4253 10.1821ZM46.8748 29.0831H14.7739L11.2028 11.7913L50.4459 11.7914L46.8748 29.0831Z" fill="#FEDD49"/>
<path d="M22.804 39.8758C20.2823 39.8758 18.2307 41.9224 18.2307 44.4379C18.2307 46.9534 20.2823 49 22.804 49C25.3257 49 27.3773 46.9534 27.3773 44.4379C27.3772 41.9224 25.3256 39.8758 22.804 39.8758ZM22.804 46.4526C21.6903 46.4526 20.7842 45.5486 20.7842 44.4377C20.7842 43.3267 21.6904 42.4229 22.804 42.4229C23.9176 42.4229 24.8238 43.3268 24.8238 44.4377C24.8238 45.5488 23.9176 46.4526 22.804 46.4526Z" fill="#FEDD49"/>
<path d="M38.8453 39.8758C36.3236 39.8758 34.272 41.9224 34.272 44.4379C34.272 46.9534 36.3236 49 38.8453 49C41.367 49 43.4186 46.9534 43.4186 44.4379C43.4185 41.9224 41.3669 39.8758 38.8453 39.8758ZM38.8453 46.4526C37.7316 46.4526 36.8255 45.5486 36.8255 44.4377C36.8255 43.3267 37.7317 42.4229 38.8453 42.4229C39.959 42.4229 40.8651 43.3268 40.8651 44.4377C40.8651 45.5488 39.9589 46.4526 38.8453 46.4526Z" fill="#FEDD49"/>
<path d="M39.9712 15.8569H21.6748C20.9697 15.8569 20.3981 16.4271 20.3981 17.1305C20.3981 17.8339 20.9698 18.4041 21.6748 18.4041H39.9712C40.6764 18.4041 41.248 17.8339 41.248 17.1305C41.248 16.4269 40.6764 15.8569 39.9712 15.8569Z" fill="#FEDD49"/>
<path d="M38.9754 22.4707H22.6708C21.9656 22.4707 21.394 23.0409 21.394 23.7443C21.394 24.4477 21.9656 25.0179 22.6708 25.0179H38.9753C39.6805 25.0179 40.2521 24.4477 40.2521 23.7443C40.2521 23.041 39.6805 22.4707 38.9754 22.4707Z" fill="#FEDD49"/>
<path d="M52.4253 10.1821L52.2317 10.3403L52.2317 10.3403L52.4253 10.1821ZM10.6767 9.24417L10.4319 9.29473L10.4731 9.49417H10.6767V9.24417ZM9.87357 5.35481L10.1184 5.30425L10.1184 5.30421L9.87357 5.35481ZM8.38933 3.53226L8.4887 3.30285L8.48867 3.30284L8.38933 3.53226ZM2.78541 1.10577L2.68602 1.33516L2.68608 1.33519L2.78541 1.10577ZM1.10598 1.76675L1.3352 1.86653L1.33523 1.86646L1.10598 1.76675ZM1.76857 3.44219L1.86791 3.21277L1.86789 3.21276L1.76857 3.44219ZM7.37259 5.86877L7.61742 5.81821L7.59115 5.69098L7.47193 5.63936L7.37259 5.86877ZM13.5502 35.783L13.3054 35.8336L13.3054 35.8336L13.5502 35.783ZM16.0513 35.2689L15.8065 35.3195L15.8477 35.5189H16.0513V35.2689ZM15.2999 31.6301V31.3801H14.9929L15.055 31.6807L15.2999 31.6301ZM49.3757 29.5969L49.1309 29.5464V29.5464L49.3757 29.5969ZM52.947 12.3051L53.1918 12.3557V12.3556L52.947 12.3051ZM46.8748 29.0831V29.3331H47.0785L47.1197 29.1336L46.8748 29.0831ZM14.7739 29.0831L14.529 29.1336L14.5702 29.3331H14.7739V29.0831ZM11.2028 11.7913L11.2028 11.5413L10.8959 11.5413L10.958 11.8419L11.2028 11.7913ZM50.4459 11.7914L50.6907 11.842L50.7528 11.5414L50.4459 11.5414V11.7914ZM27.3773 44.4379H27.6273V44.4379L27.3773 44.4379ZM43.4186 44.4379H43.6686V44.4379L43.4186 44.4379ZM41.248 17.1305H41.498H41.248ZM52.619 10.024C52.0845 9.3696 51.2918 8.99417 50.446 8.99417V9.49417C51.1421 9.49417 51.7924 9.80241 52.2317 10.3403L52.619 10.024ZM50.446 8.99417H10.6767V9.49417H50.446V8.99417ZM10.9216 9.19361L10.1184 5.30425L9.62873 5.40536L10.4319 9.29473L10.9216 9.19361ZM10.1184 5.30421C9.9342 4.41296 9.32505 3.66512 8.4887 3.30285L8.28997 3.76166C8.97725 4.05936 9.47758 4.674 9.62874 5.40541L10.1184 5.30421ZM8.48867 3.30284L2.88475 0.876358L2.68608 1.33519L8.28999 3.76168L8.48867 3.30284ZM2.88481 0.876385C2.11163 0.541351 1.2125 0.895037 0.876722 1.66704L1.33523 1.86646C1.56068 1.34812 2.16529 1.10952 2.68602 1.33516L2.88481 0.876385ZM0.87675 1.66697C0.540489 2.43948 0.896071 3.33691 1.66925 3.67162L1.86789 3.21276C1.34777 2.98761 1.10962 2.38477 1.3352 1.86653L0.87675 1.66697ZM1.66923 3.67161L7.27325 6.09819L7.47193 5.63936L1.86791 3.21277L1.66923 3.67161ZM7.12776 5.91933L13.3054 35.8336L13.7951 35.7324L7.61742 5.81821L7.12776 5.91933ZM13.3054 35.8336C13.5728 37.1282 14.7272 38.0662 16.0512 38.0662V37.5662C14.9635 37.5662 14.0143 36.794 13.7951 35.7324L13.3054 35.8336ZM16.0512 38.0662H46.6384V37.5662H16.0512V38.0662ZM46.6384 38.0662C47.481 38.0662 48.1652 37.3846 48.1652 36.5426H47.6652C47.6652 37.1073 47.2061 37.5662 46.6384 37.5662V38.0662ZM48.1652 36.5426C48.1652 35.7005 47.481 35.0189 46.6384 35.0189V35.5189C47.2061 35.5189 47.6652 35.9778 47.6652 36.5426H48.1652ZM46.6384 35.0189H16.0513V35.5189H46.6384V35.0189ZM16.2961 35.2184L15.5447 31.5796L15.055 31.6807L15.8065 35.3195L16.2961 35.2184ZM15.2999 31.8801H46.8748V31.3801H15.2999V31.8801ZM46.8748 31.8801C48.1988 31.8801 49.3532 30.9421 49.6206 29.6475L49.1309 29.5464C48.9117 30.6079 47.9624 31.3801 46.8748 31.3801V31.8801ZM49.6206 29.6475L53.1918 12.3557L52.7021 12.2545L49.1309 29.5464L49.6206 29.6475ZM53.1918 12.3556C53.3625 11.5289 53.1535 10.6782 52.6189 10.024L52.2317 10.3403C52.6711 10.8781 52.8424 11.5754 52.7021 12.2545L53.1918 12.3556ZM46.8748 28.8331H14.7739V29.3331H46.8748V28.8331ZM15.0187 29.0325L11.4477 11.7408L10.958 11.8419L14.529 29.1336L15.0187 29.0325ZM11.2028 12.0413L50.4459 12.0414V11.5414L11.2028 11.5413L11.2028 12.0413ZM50.2011 11.7409L46.63 29.0325L47.1197 29.1336L50.6907 11.842L50.2011 11.7409ZM22.804 39.6258C20.1448 39.6258 17.9807 41.7837 17.9807 44.4379H18.4807C18.4807 42.061 20.4198 40.1258 22.804 40.1258V39.6258ZM17.9807 44.4379C17.9807 47.0921 20.1448 49.25 22.804 49.25V48.75C20.4198 48.75 18.4807 46.8148 18.4807 44.4379H17.9807ZM22.804 49.25C25.4632 49.25 27.6273 47.0921 27.6273 44.4379H27.1273C27.1273 46.8148 25.1882 48.75 22.804 48.75V49.25ZM27.6273 44.4379C27.6272 41.7837 25.4631 39.6258 22.804 39.6258V40.1258C25.1881 40.1258 27.1272 42.061 27.1273 44.4379L27.6273 44.4379ZM22.804 46.2026C21.8278 46.2026 21.0342 45.41 21.0342 44.4377H20.5342C20.5342 45.6873 21.5528 46.7026 22.804 46.7026V46.2026ZM21.0342 44.4377C21.0342 43.4654 21.8279 42.6729 22.804 42.6729V42.1729C21.5529 42.1729 20.5342 43.188 20.5342 44.4377H21.0342ZM22.804 42.6729C23.7802 42.6729 24.5738 43.4654 24.5738 44.4377H25.0738C25.0738 43.1881 24.0551 42.1729 22.804 42.1729V42.6729ZM24.5738 44.4377C24.5738 45.4102 23.7802 46.2026 22.804 46.2026V46.7026C24.0551 46.7026 25.0738 45.6875 25.0738 44.4377H24.5738ZM38.8453 39.6258C36.1861 39.6258 34.022 41.7837 34.022 44.4379H34.522C34.522 42.061 36.4611 40.1258 38.8453 40.1258V39.6258ZM34.022 44.4379C34.022 47.0921 36.1861 49.25 38.8453 49.25V48.75C36.4611 48.75 34.522 46.8148 34.522 44.4379H34.022ZM38.8453 49.25C41.5045 49.25 43.6686 47.0921 43.6686 44.4379H43.1686C43.1686 46.8148 41.2295 48.75 38.8453 48.75V49.25ZM43.6686 44.4379C43.6685 41.7837 41.5044 39.6258 38.8453 39.6258V40.1258C41.2294 40.1258 43.1685 42.061 43.1686 44.4379L43.6686 44.4379ZM38.8453 46.2026C37.8691 46.2026 37.0755 45.41 37.0755 44.4377H36.5755C36.5755 45.6873 37.5941 46.7026 38.8453 46.7026V46.2026ZM37.0755 44.4377C37.0755 43.4654 37.8692 42.6729 38.8453 42.6729V42.1729C37.5942 42.1729 36.5755 43.188 36.5755 44.4377H37.0755ZM38.8453 42.6729C39.8215 42.6729 40.6151 43.4654 40.6151 44.4377H41.1151C41.1151 43.1882 40.0966 42.1729 38.8453 42.1729V42.6729ZM40.6151 44.4377C40.6151 45.4102 39.8215 46.2026 38.8453 46.2026V46.7026C40.0964 46.7026 41.1151 45.6875 41.1151 44.4377H40.6151ZM39.9712 15.6069H21.6748V16.1069H39.9712V15.6069ZM21.6748 15.6069C20.8322 15.6069 20.1481 16.2884 20.1481 17.1305H20.6481C20.6481 16.5657 21.1072 16.1069 21.6748 16.1069V15.6069ZM20.1481 17.1305C20.1481 17.9726 20.8323 18.6541 21.6748 18.6541V18.1541C21.1073 18.1541 20.6481 17.6952 20.6481 17.1305H20.1481ZM21.6748 18.6541H39.9712V18.1541H21.6748V18.6541ZM39.9712 18.6541C40.8139 18.6541 41.498 17.9726 41.498 17.1305H40.998C40.998 17.6953 40.5389 18.1541 39.9712 18.1541V18.6541ZM41.498 17.1305C41.498 16.2883 40.8139 15.6069 39.9712 15.6069V16.1069C40.5389 16.1069 40.998 16.5656 40.998 17.1305H41.498ZM38.9754 22.2207H22.6708V22.7207H38.9754V22.2207ZM22.6708 22.2207C21.8281 22.2207 21.144 22.9022 21.144 23.7443H21.644C21.644 23.1795 22.1031 22.7207 22.6708 22.7207V22.2207ZM21.144 23.7443C21.144 24.5864 21.8281 25.2679 22.6708 25.2679V24.7679C22.1031 24.7679 21.644 24.3091 21.644 23.7443H21.144ZM22.6708 25.2679H38.9753V24.7679H22.6708V25.2679ZM38.9753 25.2679C39.818 25.2679 40.5021 24.5864 40.5021 23.7443H40.0021C40.0021 24.3091 39.543 24.7679 38.9753 24.7679V25.2679ZM40.5021 23.7443C40.5021 22.9023 39.818 22.2207 38.9754 22.2207V22.7207C39.5429 22.7207 40.0021 23.1796 40.0021 23.7443H40.5021Z" fill="#FEDD49"/>
</svg>
